<?xml version="1.0" standalone="no"?>
<!DOCTYPE svg PUBLIC "-//W3C//DTD SVG 20010904//EN"
 "http://www.w3.org/TR/2001/REC-SVG-20010904/DTD/svg10.dtd">
<svg version="1.0" xmlns="http://www.w3.org/2000/svg"
 width="260.000000pt" height="260.000000pt" viewBox="0 0 260.000000 260.000000"
 preserveAspectRatio="xMidYMid meet">
<metadata>
Created by potrace 1.11, written by Peter Selinger 2001-2013
</metadata>
<g transform="translate(0.000000,260.000000) scale(0.100000,-0.100000)"
fill="#000000" stroke="none">
<path d="M417 2430 c-74 -23 -128 -58 -194 -126 -102 -104 -134 -202 -138
-429 -3 -125 1 -179 15 -247 34 -163 118 -286 235 -343 70 -35 103 -40 255
-40 122 0 126 1 166 29 22 16 58 53 80 81 l39 52 40 -45 c60 -68 120 -92 232
-92 58 0 94 4 99 11 9 15 8 174 -1 188 -3 6 -28 11 -54 11 -82 0 -123 48 -148
175 -27 139 -30 120 72 425 53 157 94 296 93 310 -3 25 -3 25 -108 25 l-105 0
-27 -75 c-14 -41 -29 -84 -32 -95 -5 -17 -9 -14 -25 20 -21 47 -87 117 -132
140 -90 47 -255 58 -362 25z m240 -222 c48 -33 79 -107 108 -255 l27 -133 -32
-97 c-70 -211 -129 -283 -218 -267 -125 21 -201 150 -208 349 -4 119 14 212
56 304 33 70 45 82 105 112 49 24 114 19 162 -13z"/>
<path d="M1655 1473 c-102 -21 -197 -75 -281 -158 -134 -134 -183 -272 -179
-502 4 -176 46 -295 151 -425 l54 -67 -107 -3 -108 -3 -5 -76 c-3 -42 -3 -89
0 -105 l5 -29 290 0 290 0 1 103 0 104 -55 35 c-201 128 -314 393 -261 613 48
204 205 326 403 315 279 -16 436 -309 330 -617 -46 -133 -116 -225 -235 -307
l-53 -37 0 -105 0 -104 290 0 290 0 2 85 c3 139 11 130 -118 130 l-110 0 22
23 c35 36 108 137 124 171 49 104 58 148 61 307 3 144 1 162 -22 240 -14 46
-33 98 -43 114 -60 110 -177 218 -288 266 -115 49 -299 62 -448 32z"/>
</g>
</svg>
