<?xml version="1.0" standalone="no"?>
<!DOCTYPE svg PUBLIC "-//W3C//DTD SVG 1.1//EN" "http://www.w3.org/Graphics/SVG/1.1/DTD/svg11.dtd" >
<svg xmlns="http://www.w3.org/2000/svg">
<metadata></metadata>
<defs>
<font id="pokemon_bwregular" horiz-adv-x="768" >
<font-face units-per-em="2048" ascent="1638" descent="-410" />
<missing-glyph horiz-adv-x="256" />
<glyph horiz-adv-x="0" />
<glyph horiz-adv-x="682" />
<glyph unicode=" "  horiz-adv-x="256" />
<glyph unicode="&#x09;" horiz-adv-x="256" />
<glyph unicode="&#xa0;" horiz-adv-x="256" />
<glyph unicode="!" horiz-adv-x="256" d="M128 0v256h128v-256h-128zM128 384v896h128v-896h-128z" />
<glyph unicode="&#x22;" d="M128 768v128h128v-128h-128zM128 1024v256h256v-384h-128v128h-128zM512 768v128h128v-128h-128zM512 1024v256h256v-384h-128v128h-128z" />
<glyph unicode="$" d="M128 896v384h128v-384h-128zM256 128v128h128v128h-128v128h128v128h128v-128h128v-128h-128v-128h128v-128h-128v-128h-128v128h-128zM256 640v256h128v-256h-128zM512 640v256h128v-256h-128zM640 896v384h128v-384h-128z" />
<glyph unicode="%" horiz-adv-x="896" d="M0 896v384h384v-384h-384zM128 0v256h128v-256h-128zM128 1024h128v128h-128v-128zM256 256v256h128v-256h-128zM384 512v256h128v-256h-128zM512 0v384h384v-384h-384zM512 768v256h128v-256h-128zM640 128h128v128h-128v-128zM640 1024v256h128v-256h-128z" />
<glyph unicode="'" horiz-adv-x="384" d="M128 768v128h128v-128h-128zM128 1024v256h256v-384h-128v128h-128z" />
<glyph unicode="," horiz-adv-x="384" d="M128 0h128v-128h-128v128zM256 0v128h128v-128h-128z" />
<glyph unicode="." horiz-adv-x="256" d="M128 0v128h128v-128h-128z" />
<glyph unicode="/" d="M128 0v256h128v-256h-128zM256 256v256h128v-256h-128zM384 512v256h128v-256h-128zM512 768v256h128v-256h-128zM640 1024v256h128v-256h-128z" />
<glyph unicode="0" d="M128 128v1024h128v-1024h-128zM256 0v128h384v-128h-384zM256 1152v128h384v-128h-384zM640 128v1024h128v-1024h-128z" />
<glyph unicode="1" horiz-adv-x="512" d="M128 1024v128h256v128h128v-1280h-128v1024h-256z" />
<glyph unicode="2" d="M128 0v256h128v-128h512v-128h-640zM128 1024v128h128v-128h-128zM256 256v128h128v-128h-128zM256 1152v128h384v-128h-384zM384 384v256h128v-256h-128zM512 640v128h128v-128h-128zM640 768v384h128v-384h-128z" />
<glyph unicode="3" d="M128 128v256h128v-256h-128zM128 1024v128h128v-128h-128zM256 0v128h384v-128h-384zM256 640v128h384v-128h-384zM256 1152v128h384v-128h-384zM640 128v512h128v-512h-128zM640 768v384h128v-384h-128z" />
<glyph unicode="4" d="M128 256v384h128v-256h256v768h-128v128h256v-896h128v-128h-128v-256h-128v256h-384zM256 640v512h128v-512h-128z" />
<glyph unicode="5" d="M128 128v256h128v-256h-128zM128 640v640h640v-128h-512v-384h384v-128h-512zM256 0v128h384v-128h-384zM640 128v512h128v-512h-128z" />
<glyph unicode="6" d="M128 128v1024h128v-384h384v-128h-384v-512h-128zM256 0v128h384v-128h-384zM256 1152v128h384v-128h-384zM640 128v512h128v-512h-128zM640 1024v128h128v-128h-128z" />
<glyph unicode="7" d="M128 1152v128h640v-384h-128v256h-512zM384 0v512h128v-512h-128zM512 512v384h128v-384h-128z" />
<glyph unicode="8" d="M128 128v512h128v-512h-128zM128 768v384h128v-384h-128zM256 0v128h384v-128h-384zM256 640v128h384v-128h-384zM256 1152v128h384v-128h-384zM640 128v512h128v-512h-128zM640 768v384h128v-384h-128z" />
<glyph unicode="9" d="M128 128v128h128v-128h-128zM128 640v512h128v-512h-128zM256 0v128h384v-128h-384zM256 512v128h384v512h128v-1024h-128v384h-384zM256 1152v128h384v-128h-384z" />
<glyph unicode=":" horiz-adv-x="384" d="M256 128v128h128v-128h-128zM256 512v128h128v-128h-128z" />
<glyph unicode=";" horiz-adv-x="384" d="M128 0v128h128v-128h-128zM256 128v128h128v-128h-128zM256 512v128h128v-128h-128z" />
<glyph unicode="?" d="M128 896v256h128v-256h-128zM256 1152v128h384v-128h-384zM384 0v256h128v-256h-128zM384 384v256h128v-256h-128zM512 640v128h128v-128h-128zM640 768v384h128v-384h-128z" />
<glyph unicode="A" d="M128 0v1152h128v-512h384v512h128v-1152h-128v512h-384v-512h-128zM256 1152v128h384v-128h-384z" />
<glyph unicode="B" d="M128 0v1280h512v-128h-384v-384h384v-128h-384v-512h384v-128h-512zM640 128v512h128v-512h-128zM640 768v384h128v-384h-128z" />
<glyph unicode="C" d="M128 128v1024h128v-1024h-128zM256 0v128h384v-128h-384zM256 1152v128h384v-128h-384zM640 128v256h128v-256h-128zM640 896v256h128v-256h-128z" />
<glyph unicode="D" d="M128 0v1280h512v-128h-384v-1024h384v-128h-512zM640 128v1024h128v-1024h-128z" />
<glyph unicode="E" d="M128 0v1280h640v-128h-512v-384h512v-128h-512v-512h512v-128h-640z" />
<glyph unicode="F" d="M128 0v1280h640v-128h-512v-384h384v-128h-384v-640h-128z" />
<glyph unicode="G" d="M128 128v1024h128v-1024h-128zM256 0v128h384v-128h-384zM256 1152v128h384v-128h-384zM512 512v128h256v-512h-128v384h-128zM640 896v256h128v-256h-128z" />
<glyph unicode="H" d="M128 0v1280h128v-512h384v512h128v-1280h-128v640h-384v-640h-128z" />
<glyph unicode="I" horiz-adv-x="512" d="M128 0v128h128v1024h-128v128h384v-128h-128v-1024h128v-128h-384z" />
<glyph unicode="J" d="M128 128v256h128v-256h-128zM256 0v128h384v-128h-384zM640 128v1152h128v-1152h-128z" />
<glyph unicode="K" d="M128 0v1280h128v-384h128v128h128v128h128v128h128v-256h-128v-128h-128v-384h-128v256h-128v-768h-128zM512 256v256h128v-256h-128zM640 0v256h128v-256h-128z" />
<glyph unicode="L" d="M128 0v1280h128v-1152h512v-128h-640z" />
<glyph unicode="M" d="M128 0v1280h128v-384h128v-384h-128v-512h-128zM384 0v512h128v-512h-128zM512 512v384h128v384h128v-1280h-128v512h-128z" />
<glyph unicode="N" d="M128 0v1280h128v-128h128v-256h-128v-896h-128zM384 640v256h128v-256h-128zM512 384v256h128v640h128v-1280h-128v384h-128z" />
<glyph unicode="O" d="M128 128v1024h128v-1024h-128zM256 0v128h384v-128h-384zM256 1152v128h384v-128h-384zM640 128v1024h128v-1024h-128z" />
<glyph unicode="P" d="M128 0v1280h512v-128h-384v-384h384v-128h-384v-640h-128zM640 768v384h128v-384h-128z" />
<glyph unicode="Q" horiz-adv-x="896" d="M128 128v1024h128v-1024h-128zM256 0v128h384v-128h-384zM256 1152v128h384v-128h-384zM512 256v128h128v-128h-128zM640 128v128h128v-128h-128zM640 384v768h128v-768h-128zM768 0v128h128v-128h-128z" />
<glyph unicode="R" d="M128 0v1280h512v-128h-384v-512h384v-256h-128v128h-256v-512h-128zM640 0v384h128v-384h-128zM640 640v512h128v-512h-128z" />
<glyph unicode="S" d="M128 128v256h128v-256h-128zM128 768v384h128v-384h-128zM256 0v128h384v-128h-384zM256 640v128h128v-128h-128zM256 1152v128h384v-128h-384zM384 512v128h256v-128h-256zM640 128v384h128v-384h-128zM640 896v256h128v-256h-128z" />
<glyph unicode="T" d="M128 1152v128h640v-128h-256v-1152h-128v1152h-256z" />
<glyph unicode="U" d="M128 128v1152h128v-1152h-128zM256 0v128h384v-128h-384zM640 128v1152h128v-1152h-128z" />
<glyph unicode="V" d="M128 768v512h128v-512h-128zM256 384v384h128v-384h-128zM384 0v384h128v-384h-128zM512 384v384h128v-384h-128zM640 768v512h128v-512h-128z" />
<glyph unicode="W" d="M128 0v1280h128v-1024h128v-128h-128v-128h-128zM384 256v128h128v-128h-128zM512 128v128h128v1024h128v-1280h-128v128h-128z" />
<glyph unicode="X" d="M128 0v256h128v-256h-128zM128 1024v256h128v-256h-128zM256 256v256h128v-256h-128zM256 768v256h128v-256h-128zM384 512v256h128v-256h-128zM512 256v256h128v-256h-128zM512 768v256h128v-256h-128zM640 0v256h128v-256h-128zM640 1024v256h128v-256h-128z" />
<glyph unicode="Y" d="M128 896v384h128v-384h-128zM256 640v256h128v-256h-128zM384 0v640h128v-640h-128zM512 640v256h128v-256h-128zM640 896v384h128v-384h-128z" />
<glyph unicode="Z" d="M128 0v256h128v-128h512v-128h-640zM128 1152v128h640v-256h-128v128h-512zM256 256v256h128v-256h-128zM384 512v256h128v-256h-128zM512 768v256h128v-256h-128z" />
<glyph unicode="\" d="M128 1024v256h128v-256h-128zM256 768v256h128v-256h-128zM384 512v256h128v-256h-128zM512 256v256h128v-256h-128zM640 0v256h128v-256h-128z" />
<glyph unicode="a" d="M128 128v256h128v-256h-128zM256 0v128h384v256h-384v128h384v128h128v-640h-512zM256 640v128h384v-128h-384z" />
<glyph unicode="b" d="M128 0v1152h128v-384h384v-128h-384v-512h384v-128h-512zM640 128v512h128v-512h-128z" />
<glyph unicode="c" d="M128 128v512h128v-512h-128zM256 0v128h384v-128h-384zM256 640v128h384v-128h-384zM640 128v128h128v-128h-128zM640 512v128h128v-128h-128z" />
<glyph unicode="d" d="M128 128v512h128v-512h-128zM256 0v128h384v512h-384v128h384v384h128v-1152h-512z" />
<glyph unicode="e" d="M128 128v512h128v-256h384v256h128v-384h-512v-128h-128zM256 0v128h512v-128h-512zM256 640v128h384v-128h-384z" />
<glyph unicode="f" horiz-adv-x="640" d="M128 640v128h128v256h128v-256h256v-128h-256v-640h-128v640h-128zM384 1024v128h256v-128h-256z" />
<glyph unicode="g" d="M128 0v128h128v-128h-128zM128 384v256h128v-256h-128zM256 0h384v-128h-384v128zM256 256v128h384v256h-384v128h512v-768h-128v256h-384z" />
<glyph unicode="h" d="M128 0v1152h128v-384h384v-128h-384v-640h-128zM640 0v640h128v-640h-128z" />
<glyph unicode="i" horiz-adv-x="384" d="M128 640v128h256v-768h-128v640h-128zM256 896v128h128v-128h-128z" />
<glyph unicode="j" d="M128 0v128h128v-128h-128zM256 0h384v-128h-384v128zM640 0v768h128v-768h-128zM640 896v128h128v-128h-128z" />
<glyph unicode="k" d="M128 0v1152h128v-640h256v-256h-128v128h-128v-384h-128zM512 128v128h128v-128h-128zM512 512v128h128v-128h-128zM640 0v128h128v-128h-128zM640 640v128h128v-128h-128z" />
<glyph unicode="l" horiz-adv-x="384" d="M128 1024v128h256v-1152h-128v1024h-128z" />
<glyph unicode="m" d="M128 0v768h512v-128h-128v-640h-128v640h-128v-640h-128zM640 0v640h128v-640h-128z" />
<glyph unicode="n" d="M128 0v768h512v-128h-384v-640h-128zM640 0v640h128v-640h-128z" />
<glyph unicode="o" d="M128 128v512h128v-512h-128zM256 0v128h384v-128h-384zM256 640v128h384v-128h-384zM640 128v512h128v-512h-128z" />
<glyph unicode="p" d="M128 -256v1024h512v-128h-384v-384h384v-128h-384v-384h-128zM640 256v384h128v-384h-128z" />
<glyph unicode="q" d="M128 256v384h128v-384h-128zM256 128v128h384v384h-384v128h512v-1024h-128v384h-384z" />
<glyph unicode="r" d="M128 0v768h128v-128h128v-128h-128v-512h-128zM384 640v128h256v-128h-256zM640 512v128h128v-128h-128z" />
<glyph unicode="s" d="M128 128v128h128v-128h-128zM128 512v128h128v-128h-128zM256 0v128h384v-128h-384zM256 384v128h384v-128h-384zM256 640v128h512v-128h-512zM640 128v256h128v-256h-128z" />
<glyph unicode="t" horiz-adv-x="640" d="M128 640v128h128v128h128v-128h256v-128h-256v-512h-128v512h-128zM384 0v128h256v-128h-256z" />
<glyph unicode="u" d="M128 128v640h128v-640h-128zM256 0v128h384v640h128v-768h-512z" />
<glyph unicode="v" d="M128 512v256h128v-256h-128zM256 256v256h128v-256h-128zM384 0v256h128v-256h-128zM512 256v256h128v-256h-128zM640 512v256h128v-256h-128z" />
<glyph unicode="w" d="M128 128v640h128v-640h-128zM256 0v128h128v-128h-128zM384 128v384h128v-384h-128zM512 0v128h128v-128h-128zM640 128v640h128v-640h-128z" />
<glyph unicode="x" d="M128 0v128h128v-128h-128zM128 640v128h128v-128h-128zM256 128v128h128v-128h-128zM256 512v128h128v-128h-128zM384 256v256h128v-256h-128zM512 128v128h128v-128h-128zM512 512v128h128v-128h-128zM640 0v128h128v-128h-128zM640 640v128h128v-128h-128z" />
<glyph unicode="y" d="M128 256v512h128v-512h-128zM256 -128h384v-128h-384v128zM256 128v128h384v512h128v-896h-128v256h-384z" />
<glyph unicode="z" d="M128 0v128h128v128h128v-128h384v-128h-640zM128 640v128h640v-256h-128v128h-512zM384 256v128h128v-128h-128zM512 384v128h128v-128h-128z" />
<glyph unicode="&#xc0;" d="M128 128v512h128v-256h384v256h128v-384h-512v-128h-128zM256 0v128h512v-128h-512zM256 640v128h384v-128h-384zM384 896v128h128v-128h-128zM512 1024v128h128v-128h-128z" />
<glyph unicode="&#xe9;" d="M128 128v512h128v-256h384v256h128v-384h-512v-128h-128zM256 0v128h512v-128h-512zM256 640v128h384v-128h-384zM384 896v128h128v-128h-128zM512 1024v128h128v-128h-128z" />
<glyph unicode="&#x2000;" horiz-adv-x="682" />
<glyph unicode="&#x2001;" horiz-adv-x="1365" />
<glyph unicode="&#x2002;" horiz-adv-x="682" />
<glyph unicode="&#x2003;" horiz-adv-x="1365" />
<glyph unicode="&#x2004;" horiz-adv-x="455" />
<glyph unicode="&#x2005;" horiz-adv-x="341" />
<glyph unicode="&#x2006;" horiz-adv-x="227" />
<glyph unicode="&#x2007;" horiz-adv-x="227" />
<glyph unicode="&#x2008;" horiz-adv-x="170" />
<glyph unicode="&#x2009;" horiz-adv-x="273" />
<glyph unicode="&#x200a;" horiz-adv-x="75" />
<glyph unicode="&#x2018;" horiz-adv-x="384" d="M128 768v384h128v-128h128v-256h-256zM256 1152v128h128v-128h-128z" />
<glyph unicode="&#x2019;" horiz-adv-x="384" d="M128 768v128h128v-128h-128zM128 1024v256h256v-384h-128v128h-128z" />
<glyph unicode="&#x201c;" d="M128 768v384h128v-128h128v-256h-256zM256 1152v128h128v-128h-128zM512 768v384h128v-128h128v-256h-256zM640 1152v128h128v-128h-128z" />
<glyph unicode="&#x201d;" d="M128 768v128h128v-128h-128zM128 1024v256h256v-384h-128v128h-128zM512 768v128h128v-128h-128zM512 1024v256h256v-384h-128v128h-128z" />
<glyph unicode="&#x202f;" horiz-adv-x="273" />
<glyph unicode="&#x205f;" horiz-adv-x="341" />
<glyph unicode="&#x25fc;" horiz-adv-x="770" d="M0 0v770h770v-770h-770z" />
</font>
</defs>
</svg>
