<?xml version="1.0" standalone="no"?>
<!DOCTYPE svg PUBLIC "-//W3C//DTD SVG 1.1//EN" "http://www.w3.org/Graphics/SVG/1.1/DTD/svg11.dtd" >
<svg xmlns="http://www.w3.org/2000/svg">
<metadata></metadata>
<defs>
<font id="pokemon_dpptregular" horiz-adv-x="768" >
<font-face units-per-em="2048" ascent="1536" descent="-512" />
<missing-glyph horiz-adv-x="512" />
<glyph horiz-adv-x="0" />
<glyph horiz-adv-x="682" />
<glyph unicode=" "  horiz-adv-x="512" />
<glyph unicode="&#x09;" horiz-adv-x="512" />
<glyph unicode="&#xa0;" horiz-adv-x="512" />
<glyph unicode="!" d="M256 127v256h127v-256h-127zM256 639v768h127v-768h-127z" />
<glyph unicode="#" d="M0 383v127h127v256h-127v129h127v256h129v-256h127v256h129v-256h127v-129h-127v-256h127v-127h-127v-256h-129v256h-127v-256h-129v256h-127zM256 510h127v256h-127v-256z" />
<glyph unicode="$" horiz-adv-x="894" d="M127 256v127h127v129h-127v127h127v641h385v-129h127v-383h-383v-129h256v-127h-256v-129h256v-127h-256v-256h-129v256h-127zM383 895h256v256h-256v-256z" />
<glyph unicode="%" d="M0 766v512h256v-127h127v127h129v-383h-129v-129h256v-512h-256v129h-127v-256h-129v383h129v256h-256zM127 895h129v256h-129v-256zM383 383h129v256h-129v-256z" />
<glyph unicode="&#x26;" d="M0 254v385h127v127h-127v256h127v129h256v-129h129v-256h-129v-256h129v129h127v-129h-127v-256h127v-127h-127v127h-129v-127h-256v127h-127zM127 254h256v256h-127v129h-129v-385zM127 766h256v256h-256v-256z" />
<glyph unicode="(" d="M127 383v512h127v256h129v129h127v-129h-127v-256h-129v-512h129v-256h127v-127h-127v127h-129v256h-127z" />
<glyph unicode=")" d="M256 0v127h127v256h129v512h-129v256h-127v129h127v-129h129v-256h127v-512h-127v-256h-129v-127h-127z" />
<glyph unicode="*" d="M0 1151v129h256v127h127v-127h256v-129h-256v-127h129v-256h-129v256h-127v-256h-129v256h129v127h-256z" />
<glyph unicode="+" d="M0 639v129h256v383h127v-383h256v-129h-256v-383h-127v383h-256z" />
<glyph unicode="," horiz-adv-x="638" d="M127 -2h127v129h-127v256h256v-385h-129v-127h-127v127z" />
<glyph unicode="-" d="M0 639v127h639v-127h-639z" />
<glyph unicode="." horiz-adv-x="638" d="M127 127v256h256v-256h-256z" />
<glyph unicode="/" d="M0 0v256h127v256h129v256h127v256h129v256h127v-256h-127v-256h-129v-256h-127v-256h-129v-256h-127z" />
<glyph unicode="0" d="M0 383v639h127v129h129v127h127v-127h129v-129h127v-639h-127v-129h-129v-127h-127v127h-129v129h-127zM127 383h129v-129h127v129h129v639h-129v129h-127v-129h-129v-639z" />
<glyph unicode="1" d="M127 1022v129h256v127h127v-1151h-127v895h-256z" />
<glyph unicode="2" d="M0 127v256h127v127h129v129h127v127h129v385h-385v-256h-127v256h127v127h385v-127h127v-385h-127v-127h-129v-129h-127v-127h-129v-129h512v-127h-639z" />
<glyph unicode="3" d="M0 254v256h127v-256h385v385h-256v127h256v385h-385v-256h-127v256h127v127h385v-127h127v-385h-127v-127h127v-385h-127v-127h-385v127h-127z" />
<glyph unicode="4" d="M0 383v512h127v256h129v127h256v-768h127v-127h-127v-256h-129v256h-383zM127 510h256v641h-127v-256h-129v-385z" />
<glyph unicode="5" d="M0 254v129h127v-129h385v385h-512v639h639v-127h-512v-385h385v-127h127v-385h-127v-127h-385v127h-127z" />
<glyph unicode="6" d="M0 254v897h127v127h385v-127h127v-129h-127v129h-385v-385h385v-127h127v-385h-127v-127h-385v127h-127zM127 254h385v385h-385v-385z" />
<glyph unicode="7" d="M0 1151v127h639v-383h-127v-256h-129v-256h-127v-256h-129v256h129v256h127v256h129v256h-512z" />
<glyph unicode="8" d="M0 254v385h127v127h-127v385h127v127h385v-127h127v-385h-127v-127h127v-385h-127v-127h-385v127h-127zM127 254h385v385h-385v-385zM127 766h385v385h-385v-385z" />
<glyph unicode="9" d="M0 254v129h127v-129h385v385h-385v127h-127v385h127v127h385v-127h127v-897h-127v-127h-385v127h-127zM127 766h385v385h-385v-385z" />
<glyph unicode=":" horiz-adv-x="638" d="M127 127v256h256v-256h-256zM127 766v256h256v-256h-256z" />
<glyph unicode=";" horiz-adv-x="638" d="M127 -2h127v129h-127v256h256v-385h-129v-127h-127v127zM127 766v256h256v-256h-256z" />
<glyph unicode="=" d="M0 383v127h639v-127h-639zM0 766v129h639v-129h-639z" />
<glyph unicode="?" d="M0 1022v256h127v129h385v-129h127v-383h-127v-129h-129v-256h-127v256h127v129h129v383h-385v-256h-127zM256 127v256h127v-256h-127z" />
<glyph unicode="@" d="M0 383v639h127v129h129v127h256v-127h127v-641h-127v-127h-256v-129h256v-127h-256v127h-129v129h-127zM127 383h129v127h-129v-127zM127 895h129v127h-129v-127zM256 510h127v385h-127v-385zM256 1022h127v-127h129v256h-256v-129z" />
<glyph unicode="A" d="M0 127v1024h127v127h385v-127h127v-1024h-127v512h-385v-512h-127zM127 766h385v385h-385v-385z" />
<glyph unicode="B" d="M0 127v1151h512v-127h127v-385h-127v-127h127v-385h-127v-127h-512zM127 254h385v385h-385v-385zM127 766h385v385h-385v-385z" />
<glyph unicode="C" d="M0 254v897h127v127h385v-127h127v-256h-127v256h-385v-897h385v256h127v-256h-127v-127h-385v127h-127z" />
<glyph unicode="D" d="M0 127v1151h512v-127h127v-897h-127v-127h-512zM127 254h385v897h-385v-897z" />
<glyph unicode="E" d="M0 127v1151h639v-127h-512v-385h512v-127h-512v-385h512v-127h-639z" />
<glyph unicode="F" d="M0 127v1151h639v-127h-512v-385h385v-127h-385v-512h-127z" />
<glyph unicode="G" d="M0 254v897h127v127h385v-127h127v-129h-127v129h-385v-897h385v385h-129v127h256v-512h-127v-127h-385v127h-127z" />
<glyph unicode="H" d="M0 127v1151h127v-512h385v512h127v-1151h-127v512h-385v-512h-127z" />
<glyph unicode="I" d="M127 127v127h127v897h-127v127h383v-127h-127v-897h127v-127h-383z" />
<glyph unicode="J" d="M0 254v256h127v-256h385v1024h127v-1024h-127v-127h-385v127h-127z" />
<glyph unicode="K" d="M0 127v1151h127v-383h129v127h127v129h129v127h127v-127h-127v-129h-129v-383h129v-256h127v-256h-127v256h-129v256h-127v127h-129v-639h-127z" />
<glyph unicode="L" d="M0 127v1151h127v-1024h512v-127h-639z" />
<glyph unicode="M" d="M0 127v1151h127v-256h129v-256h127v256h129v256h127v-1151h-127v639h-129v-256h-127v256h-129v-639h-127z" />
<glyph unicode="N" d="M0 127v1151h127v-256h129v-256h127v-127h129v639h127v-1151h-127v256h-129v256h-127v127h-129v-639h-127z" />
<glyph unicode="O" d="M0 254v897h127v127h385v-127h127v-897h-127v-127h-385v127h-127zM127 254h385v897h-385v-897z" />
<glyph unicode="P" d="M0 127v1151h512v-127h127v-385h-127v-127h-385v-512h-127zM127 766h385v385h-385v-385z" />
<glyph unicode="Q" d="M0 256v895h127v129h385v-129h127v-895h-127v-129h127v-127h-127v127h-385v129h-127zM127 256h129v127h127v-127h129v895h-385v-895z" />
<glyph unicode="R" d="M0 127v1151h512v-127h127v-385h-127v-256h127v-383h-127v383h-129v129h-256v-512h-127zM127 766h385v385h-385v-385z" />
<glyph unicode="S" d="M0 254v129h127v-129h385v385h-385v127h-127v385h127v127h385v-127h127v-129h-127v129h-385v-385h385v-127h127v-385h-127v-127h-385v127h-127z" />
<glyph unicode="T" d="M0 1151v127h639v-127h-256v-1024h-127v1024h-256z" />
<glyph unicode="U" d="M0 254v1024h127v-1024h385v1024h127v-1024h-127v-127h-385v127h-127z" />
<glyph unicode="V" d="M0 639v639h127v-639h129v-256h127v256h129v639h127v-639h-127v-256h-129v-256h-127v256h-129v256h-127z" />
<glyph unicode="W" d="M0 127v1151h127v-895h129v127h127v-127h129v895h127v-1151h-127v127h-129v129h-127v-129h-129v-127h-127z" />
<glyph unicode="X" d="M0 127v256h127v256h129v127h-129v256h-127v256h127v-256h129v-256h127v256h129v256h127v-256h-127v-256h-129v-127h129v-256h127v-256h-127v256h-129v256h-127v-256h-129v-256h-127z" />
<glyph unicode="Y" d="M0 895v383h127v-383h129v-256h127v256h129v383h127v-383h-127v-256h-129v-512h-127v512h-129v256h-127z" />
<glyph unicode="Z" d="M0 127v256h127v256h129v127h127v256h129v129h-512v127h639v-256h-127v-256h-129v-127h-127v-256h-129v-129h512v-127h-639z" />
<glyph unicode="_" d="M0 127v127h639v-127h-639z" />
<glyph unicode="a" d="M0 254v256h127v129h385v127h-385v129h385v-129h127v-639h-512v127h-127zM127 254h385v256h-385v-256z" />
<glyph unicode="b" d="M0 127v1151h127v-383h385v-129h127v-512h-127v-127h-512zM127 254h385v512h-385v-512z" />
<glyph unicode="c" d="M0 254v512h127v129h385v-129h127v-127h-127v127h-385v-512h385v129h127v-129h-127v-127h-385v127h-127z" />
<glyph unicode="d" d="M0 254v512h127v129h385v383h127v-1151h-512v127h-127zM127 254h385v512h-385v-512z" />
<glyph unicode="e" d="M0 254v512h127v129h385v-129h127v-383h-512v-129h512v-127h-512v127h-127zM127 510h385v256h-385v-256z" />
<glyph unicode="f" horiz-adv-x="638" d="M0 766v129h127v256h129v127h256v-127h-256v-256h256v-129h-256v-639h-129v639h-127z" />
<glyph unicode="g" d="M0 383v383h127v129h512v-897h-127v-127h-385v127h385v256h-385v129h-127zM127 383h385v383h-385v-383z" />
<glyph unicode="h" d="M0 127v1151h127v-383h385v-129h127v-639h-127v639h-385v-639h-127z" />
<glyph unicode="i" horiz-adv-x="382" d="M0 127v768h127v-768h-127zM0 1022v129h127v-129h-127z" />
<glyph unicode="j" horiz-adv-x="638" d="M0 -2h256v897h127v-897h-127v-127h-256v127zM256 1022v129h127v-129h-127z" />
<glyph unicode="k" d="M0 127v1151h127v-639h256v127h129v129h127v-129h-127v-127h-129v-256h129v-129h127v-127h-127v127h-129v129h-127v127h-129v-383h-127z" />
<glyph unicode="l" horiz-adv-x="512" d="M0 1151v127h256v-1151h-129v1024h-127z" />
<glyph unicode="m" d="M0 127v768h512v-129h127v-639h-127v639h-129v-639h-127v639h-129v-639h-127z" />
<glyph unicode="n" d="M0 127v768h127v-129h129v129h256v-129h127v-639h-127v639h-256v-127h-129v-512h-127z" />
<glyph unicode="o" d="M0 254v512h127v129h385v-129h127v-512h-127v-127h-385v127h-127zM127 254h385v512h-385v-512z" />
<glyph unicode="p" d="M0 -129v1024h512v-129h127v-383h-127v-129h-385v-383h-127zM127 383h385v383h-385v-383z" />
<glyph unicode="q" d="M0 383v383h127v129h512v-1024h-127v383h-385v129h-127zM127 383h385v383h-385v-383z" />
<glyph unicode="r" d="M0 127v768h127v-129h129v129h256v-129h127v-127h-127v127h-256v-127h-129v-512h-127z" />
<glyph unicode="s" d="M0 254v129h127v-129h385v256h-385v129h-127v127h127v129h512v-129h-512v-127h385v-129h127v-256h-127v-127h-385v127h-127z" />
<glyph unicode="t" d="M0 766v129h127v127h129v-127h256v-129h-256v-512h256v-127h-256v127h-129v512h-127z" />
<glyph unicode="u" d="M0 254v641h127v-641h385v641h127v-768h-512v127h-127z" />
<glyph unicode="v" d="M0 639v256h127v-256h129v-256h127v256h129v256h127v-256h-127v-256h-129v-256h-127v256h-129v256h-127z" />
<glyph unicode="w" d="M0 254v641h127v-641h129v385h127v-385h129v641h127v-641h-127v-127h-129v127h-127v-127h-129v127h-127z" />
<glyph unicode="x" d="M0 127v127h127v129h129v256h-129v127h-127v129h127v-129h129v-127h127v127h129v129h127v-129h-127v-127h-129v-256h129v-129h127v-127h-127v127h-129v129h-127v-129h-129v-127h-127z" />
<glyph unicode="y" d="M0 383v512h127v-512h385v512h127v-897h-127v-127h-385v127h385v256h-385v129h-127z" />
<glyph unicode="z" d="M0 127v127h127v129h129v127h127v129h129v127h-512v129h639v-256h-127v-129h-129v-127h-127v-129h383v-127h-639z" />
<glyph unicode="~" d="M0 639v129h127v-129h256v129h256v-129h129v-127h-129v127h-256v-127h-256v127h-127z" />
<glyph unicode="&#xa1;" horiz-adv-x="512" d="M127 -129v768h127v-768h-127zM127 895v256h127v-256h-127z" />
<glyph unicode="&#xa5;" horiz-adv-x="1024" d="M0 127v1024h895v-897h-127v-127h-129v127h129v385h-641v-512h-127zM127 766h256v256h-256v-256zM512 766h256v256h-256v-256z" />
<glyph unicode="&#xaa;" d="M0 895v256h127v129h385v127h-385v129h385v-129h127v-639h-512v127h-127zM127 895h385v256h-385v-256z" />
<glyph unicode="&#xad;" d="M0 639v127h639v-127h-639z" />
<glyph unicode="&#xb0;" horiz-adv-x="638" d="M0 895v256h127v129h256v-129h129v-256h-129v-127h-256v127h-127zM127 895h256v256h-256v-256z" />
<glyph unicode="&#xb2;" horiz-adv-x="1024" d="M0 768v768h127v-129h129v129h127v-129h129v129h256v-129h127v-383h-383v-129h256v-127h-256v127h-129v512h-127v-127h-129v-512h-127zM512 1151h256v256h-256v-256z" />
<glyph unicode="&#xb3;" horiz-adv-x="638" d="M0 895v639h127v-127h129v127h256v-127h-256v-129h-129v-383h-127z" />
<glyph unicode="&#xb7;" d="M256 639v127h127v-127h-127z" />
<glyph unicode="&#xb9;" horiz-adv-x="1024" d="M0 895v512h127v129h256v-129h129v129h127v-129h129v129h127v-129h-127v-127h-129v-512h-127v256h-385v-129h256v-127h-256v127h-127zM127 1151h256v256h-256v-256z" />
<glyph unicode="&#xba;" d="M0 895v512h127v129h385v-129h127v-512h-127v-127h-385v127h-127zM127 895h385v512h-385v-512z" />
<glyph unicode="&#xbf;" d="M0 -2v385h127v127h129v256h127v-383h-256v-385h385v385h127v-385h-127v-127h-385v127h-127zM256 895v256h127v-256h-127z" />
<glyph unicode="&#xc0;" d="M0 127v1024h127v127h385v-127h127v-1024h-127v512h-385v-512h-127zM127 766h385v385h-385v-385zM127 1534v129h129v-129h127v-127h-127v127h-129z" />
<glyph unicode="&#xc1;" d="M0 127v1024h127v127h385v-127h127v-1024h-127v512h-385v-512h-127zM127 766h385v385h-385v-385zM256 1407v127h127v129h129v-129h-129v-127h-127z" />
<glyph unicode="&#xc2;" d="M0 127v1024h127v127h385v-127h127v-1024h-127v512h-385v-512h-127zM127 766h385v385h-385v-385zM127 1407v127h129v129h127v-129h129v-127h-129v127h-127v-127h-129z" />
<glyph unicode="&#xc3;" d="M0 127v1024h127v127h385v-127h127v-1024h-127v512h-385v-512h-127zM127 766h385v385h-385v-385zM127 1407v127h129v129h127v-129h129v129h127v-129h-127v-127h-129v127h-127v-127h-129z" />
<glyph unicode="&#xc4;" d="M0 127v1024h127v127h385v-127h127v-1024h-127v512h-385v-512h-127zM127 766h385v385h-385v-385zM127 1407v127h129v-127h-129zM383 1407v127h129v-127h-129z" />
<glyph unicode="&#xc5;" d="M0 127v1024h127v127h129v129h-129v127h129v129h127v-129h129v-127h-129v-129h129v-127h127v-1024h-127v512h-385v-512h-127zM127 766h385v385h-385v-385zM256 1407h127v127h-127v-127z" />
<glyph unicode="&#xc6;" horiz-adv-x="1280" d="M0 127v1024h127v127h1024v-127h-512v-385h512v-127h-512v-385h512v-127h-639v512h-385v-512h-127zM127 766h385v385h-385v-385z" />
<glyph unicode="&#xc7;" d="M0 254v897h127v127h385v-127h127v-256h-127v256h-385v-897h385v256h127v-256h-127v-127h-129v-256h-256v127h129v129h-129v127h-127z" />
<glyph unicode="&#xc8;" d="M0 127v1151h639v-127h-512v-385h512v-127h-512v-385h512v-127h-639zM127 1534v129h129v-129h127v-127h-127v127h-129z" />
<glyph unicode="&#xc9;" d="M0 127v1151h639v-127h-512v-385h512v-127h-512v-385h512v-127h-639zM256 1407v127h127v129h129v-129h-129v-127h-127z" />
<glyph unicode="&#xca;" d="M0 127v1151h639v-127h-512v-385h512v-127h-512v-385h512v-127h-639zM127 1407v127h129v129h127v-129h129v-127h-129v127h-127v-127h-129z" />
<glyph unicode="&#xcb;" d="M0 127v1151h639v-127h-512v-385h512v-127h-512v-385h512v-127h-639zM127 1407v127h129v-127h-129zM383 1407v127h129v-127h-129z" />
<glyph unicode="&#xcc;" d="M127 127v127h127v897h-127v127h383v-127h-127v-897h127v-127h-383zM127 1534v129h127v-129h129v-127h-129v127h-127z" />
<glyph unicode="&#xcd;" d="M127 127v127h127v897h-127v127h383v-127h-127v-897h127v-127h-383zM254 1407v127h129v129h127v-129h-127v-127h-129z" />
<glyph unicode="&#xce;" d="M127 127v127h127v897h-127v127h383v-127h-127v-897h127v-127h-383zM127 1407v127h127v129h129v-129h127v-127h-127v127h-129v-127h-127z" />
<glyph unicode="&#xcf;" d="M127 127v127h127v897h-127v127h383v-127h-127v-897h127v-127h-383zM127 1407v127h127v-127h-127zM383 1407v127h127v-127h-127z" />
<glyph unicode="&#xd0;" d="M0 127v1151h512v-127h127v-897h-127v-127h-512zM127 254h385v897h-385v-385h256v-127h-256v-385z" />
<glyph unicode="&#xd1;" d="M0 127v1151h127v-256h129v-256h127v-127h129v639h127v-1151h-127v256h-129v256h-127v127h-129v-639h-127zM127 1407v127h129v129h127v-129h129v129h127v-129h-127v-127h-129v127h-127v-127h-129z" />
<glyph unicode="&#xd2;" d="M0 254v897h127v127h385v-127h127v-897h-127v-127h-385v127h-127zM127 254h385v897h-385v-897zM127 1534v129h129v-129h127v-127h-127v127h-129z" />
<glyph unicode="&#xd3;" d="M0 254v897h127v127h385v-127h127v-897h-127v-127h-385v127h-127zM127 254h385v897h-385v-897zM256 1407v127h127v129h129v-129h-129v-127h-127z" />
<glyph unicode="&#xd4;" d="M0 254v897h127v127h385v-127h127v-897h-127v-127h-385v127h-127zM127 254h385v897h-385v-897zM127 1407v127h129v129h127v-129h129v-127h-129v127h-127v-127h-129z" />
<glyph unicode="&#xd5;" d="M0 254v897h127v127h385v-127h127v-897h-127v-127h-385v127h-127zM127 254h385v897h-385v-897zM127 1407v127h129v129h127v-129h129v129h127v-129h-127v-127h-129v127h-127v-127h-129z" />
<glyph unicode="&#xd6;" d="M0 254v897h127v127h385v-127h127v-897h-127v-127h-385v127h-127zM127 254h385v897h-385v-897zM127 1407v127h129v-127h-129zM383 1407v127h129v-127h-129z" />
<glyph unicode="&#xd7;" d="M0 383v127h127v129h129v127h-129v129h-127v127h127v-127h129v-129h127v129h129v127h127v-127h-127v-129h-129v-127h129v-129h127v-127h-127v127h-129v129h-127v-129h-129v-127h-127z" />
<glyph unicode="&#xd8;" d="M0 0v127h127v129h-127v768h127v127h385v129h127v-129h-127v-127h127v-768h-127v-129h-385v-127h-127zM127 512h129v256h127v256h-256v-512zM256 256h256v512h-129v-256h-127v-256z" />
<glyph unicode="&#xd9;" d="M0 254v1024h127v-1024h385v1024h127v-1024h-127v-127h-385v127h-127zM127 1534v129h129v-129h127v-127h-127v127h-129z" />
<glyph unicode="&#xda;" d="M0 254v1024h127v-1024h385v1024h127v-1024h-127v-127h-385v127h-127zM256 1407v127h127v129h129v-129h-129v-127h-127z" />
<glyph unicode="&#xdb;" d="M0 254v1024h127v-1024h385v1024h127v-1024h-127v-127h-385v127h-127zM127 1407v127h129v129h127v-129h129v-127h-129v127h-127v-127h-129z" />
<glyph unicode="&#xdc;" d="M0 254v1024h127v-1024h385v1024h127v-1024h-127v-127h-385v127h-127zM127 1407v127h129v-127h-129zM383 1407v127h129v-127h-129z" />
<glyph unicode="&#xdd;" d="M0 895v383h127v-383h129v-256h127v256h129v383h127v-383h-127v-256h-129v-512h-127v512h-129v256h-127zM256 1407v127h127v129h129v-129h-129v-127h-127z" />
<glyph unicode="&#xde;" d="M0 127v1151h127v-256h385v-127h127v-385h-127v-127h-385v-256h-127zM127 510h385v385h-385v-385z" />
<glyph unicode="&#xdf;" d="M0 0v1024h127v127h256v-127h129v-385h127v-383h-127v-129h-256v129h256v383h-256v129h127v256h-256v-1024h-127z" />
<glyph unicode="&#xe0;" d="M0 254v256h127v129h385v127h-385v129h385v-129h127v-639h-512v127h-127zM127 254h385v256h-385v-256zM127 1151v127h129v-127h127v-129h-127v129h-129z" />
<glyph unicode="&#xe1;" d="M0 254v256h127v129h385v127h-385v129h385v-129h127v-639h-512v127h-127zM127 254h385v256h-385v-256zM256 1022v129h127v127h129v-127h-129v-129h-127z" />
<glyph unicode="&#xe2;" d="M0 254v256h127v129h385v127h-385v129h385v-129h127v-639h-512v127h-127zM127 254h385v256h-385v-256zM127 1022v129h129v127h127v-127h129v-129h-129v129h-127v-129h-129z" />
<glyph unicode="&#xe3;" d="M0 254v256h127v129h385v127h-385v129h385v-129h127v-639h-512v127h-127zM127 254h385v256h-385v-256zM127 1022v129h129v127h127v-127h129v127h127v-127h-127v-129h-129v129h-127v-129h-129z" />
<glyph unicode="&#xe4;" d="M0 254v256h127v129h385v127h-385v129h385v-129h127v-639h-512v127h-127zM127 254h385v256h-385v-256zM127 1022v129h129v-129h-129zM383 1022v129h129v-129h-129z" />
<glyph unicode="&#xe5;" d="M0 254v256h127v129h385v127h-385v129h129v127h-129v129h129v127h127v-127h129v-129h-129v-127h129v-129h127v-639h-512v127h-127zM127 254h385v256h-385v-256zM256 1022h127v129h-127v-129z" />
<glyph unicode="&#xe6;" horiz-adv-x="1280" d="M0 254v256h127v129h385v127h-385v129h385v-129h127v129h385v-129h127v-383h-512v-129h512v-127h-1024v127h-127zM127 254h385v256h-385v-256zM639 510h385v256h-385v-256z" />
<glyph unicode="&#xe7;" d="M0 254v512h127v129h385v-129h127v-127h-127v127h-385v-512h385v129h127v-129h-127v-127h-129v-256h-256v127h129v129h-129v127h-127z" />
<glyph unicode="&#xe8;" d="M0 254v512h127v129h385v-129h127v-383h-512v-129h512v-127h-512v127h-127zM127 510h385v256h-385v-256zM127 1151v127h129v-127h127v-129h-127v129h-129z" />
<glyph unicode="&#xe9;" d="M0 254v512h127v129h385v-129h127v-383h-512v-129h512v-127h-512v127h-127zM127 510h385v256h-385v-256zM256 1022v129h127v127h129v-127h-129v-129h-127z" />
<glyph unicode="&#xea;" d="M0 254v512h127v129h385v-129h127v-383h-512v-129h512v-127h-512v127h-127zM127 510h385v256h-385v-256zM127 1022v129h129v127h127v-127h129v-129h-129v129h-127v-129h-129z" />
<glyph unicode="&#xeb;" d="M0 254v512h127v129h385v-129h127v-383h-512v-129h512v-127h-512v127h-127zM127 510h385v256h-385v-256zM127 1022v129h129v-129h-129zM383 1022v129h129v-129h-129z" />
<glyph unicode="&#xec;" horiz-adv-x="512" d="M127 127v768h127v-768h-127zM127 1278v129h127v-129h129v-127h-129v127h-127z" />
<glyph unicode="&#xed;" horiz-adv-x="512" d="M127 127v768h127v-768h-127zM127 1151v127h127v129h129v-129h-129v-127h-127z" />
<glyph unicode="&#xee;" horiz-adv-x="512" d="M0 1151v127h127v129h129v-129h127v-127h-127v127h-129v-127h-127zM127 127v768h129v-768h-129z" />
<glyph unicode="&#xef;" horiz-adv-x="512" d="M0 1151v127h127v-127h-127zM127 127v768h129v-768h-129zM256 1151v127h127v-127h-127z" />
<glyph unicode="&#xf0;" d="M0 254v385h127v127h385v256h-129v-127h-127v127h127v129h-256v127h256v-127h129v127h127v-127h-127v-129h127v-768h-127v-127h-385v127h-127zM127 254h385v385h-385v-385z" />
<glyph unicode="&#xf1;" d="M0 127v768h127v-129h129v129h256v-129h127v-639h-127v639h-256v-127h-129v-512h-127zM127 1022v129h129v127h127v-127h129v127h127v-127h-127v-129h-129v129h-127v-129h-129z" />
<glyph unicode="&#xf2;" d="M0 254v512h127v129h385v-129h127v-512h-127v-127h-385v127h-127zM127 254h385v512h-385v-512zM127 1151v127h129v-127h127v-129h-127v129h-129z" />
<glyph unicode="&#xf3;" d="M0 254v512h127v129h385v-129h127v-512h-127v-127h-385v127h-127zM127 254h385v512h-385v-512zM256 1022v129h127v127h129v-127h-129v-129h-127z" />
<glyph unicode="&#xf4;" d="M0 254v512h127v129h385v-129h127v-512h-127v-127h-385v127h-127zM127 254h385v512h-385v-512zM127 1022v129h129v127h127v-127h129v-129h-129v129h-127v-129h-129z" />
<glyph unicode="&#xf5;" d="M0 254v512h127v129h385v-129h127v-512h-127v-127h-385v127h-127zM127 254h385v512h-385v-512zM127 1022v129h129v127h127v-127h129v127h127v-127h-127v-129h-129v129h-127v-129h-129z" />
<glyph unicode="&#xf6;" d="M0 254v512h127v129h385v-129h127v-512h-127v-127h-385v127h-127zM127 254h385v512h-385v-512zM127 1022v129h129v-129h-129zM383 1022v129h129v-129h-129z" />
<glyph unicode="&#xf7;" d="M0 639v129h639v-129h-639zM256 256v127h127v-127h-127zM256 1024v127h127v-127h-127z" />
<glyph unicode="&#xf8;" d="M0 0v127h127v129h-127v512h127v127h385v129h127v-129h-127v-127h127v-512h-127v-129h-385v-127h-127zM127 383h129v256h127v129h-256v-385zM256 256h256v383h-129v-256h-127v-127z" />
<glyph unicode="&#xf9;" d="M0 254v641h127v-641h385v641h127v-768h-512v127h-127zM127 1151v127h129v-127h127v-129h-127v129h-129z" />
<glyph unicode="&#xfa;" d="M0 254v641h127v-641h385v641h127v-768h-512v127h-127zM256 1022v129h127v127h129v-127h-129v-129h-127z" />
<glyph unicode="&#xfb;" d="M0 254v641h127v-641h385v641h127v-768h-512v127h-127zM127 1022v129h129v127h127v-127h129v-129h-129v129h-127v-129h-129z" />
<glyph unicode="&#xfc;" d="M0 254v641h127v-641h385v641h127v-768h-512v127h-127zM127 1022v129h129v-129h-129zM383 1022v129h129v-129h-129z" />
<glyph unicode="&#xfd;" d="M0 383v512h127v-512h385v512h127v-897h-127v-127h-385v127h385v256h-385v129h-127zM256 1022v129h127v127h129v-127h-129v-129h-127z" />
<glyph unicode="&#xfe;" d="M0 -129v1407h127v-383h385v-129h127v-383h-127v-129h-385v-383h-127zM127 383h385v383h-385v-383z" />
<glyph unicode="&#xff;" d="M0 383v512h127v-512h385v512h127v-897h-127v-127h-385v127h385v256h-385v129h-127zM127 1022v129h129v-129h-129zM383 1022v129h129v-129h-129z" />
<glyph unicode="&#x152;" horiz-adv-x="1280" d="M0 254v897h127v127h1024v-127h-512v-385h512v-127h-512v-385h512v-127h-1024v127h-127zM127 254h385v897h-385v-897z" />
<glyph unicode="&#x153;" horiz-adv-x="1280" d="M0 254v512h127v129h385v-129h127v129h385v-129h127v-383h-512v-129h512v-127h-512v127h-127v-127h-385v127h-127zM127 254h385v512h-385v-512zM639 510h385v256h-385v-256z" />
<glyph unicode="&#x2000;" horiz-adv-x="831" />
<glyph unicode="&#x2001;" horiz-adv-x="1663" />
<glyph unicode="&#x2002;" horiz-adv-x="831" />
<glyph unicode="&#x2003;" horiz-adv-x="1663" />
<glyph unicode="&#x2004;" horiz-adv-x="554" />
<glyph unicode="&#x2005;" horiz-adv-x="415" />
<glyph unicode="&#x2006;" horiz-adv-x="277" />
<glyph unicode="&#x2007;" horiz-adv-x="277" />
<glyph unicode="&#x2008;" horiz-adv-x="207" />
<glyph unicode="&#x2009;" horiz-adv-x="332" />
<glyph unicode="&#x200a;" horiz-adv-x="92" />
<glyph unicode="&#x2010;" d="M0 639v127h639v-127h-639z" />
<glyph unicode="&#x2011;" d="M0 639v127h639v-127h-639z" />
<glyph unicode="&#x2012;" d="M0 639v127h639v-127h-639z" />
<glyph unicode="&#x2013;" horiz-adv-x="1153" d="M0 639v127h1024v-127h-1024z" />
<glyph unicode="&#x2014;" horiz-adv-x="2177" d="M0 639v127h2048v-127h-2048z" />
<glyph unicode="&#x2018;" horiz-adv-x="638" d="M127 895v383h127v129h129v-129h-129v-127h129v-256h-256z" />
<glyph unicode="&#x2019;" horiz-adv-x="638" d="M127 895v127h127v129h-127v256h256v-385h-129v-127h-127z" />
<glyph unicode="&#x201c;" d="M0 895v383h127v129h129v-129h-129v-127h129v-256h-256zM383 895v383h129v129h127v-129h-127v-127h127v-256h-256z" />
<glyph unicode="&#x201d;" d="M0 895v127h127v129h-127v256h256v-385h-129v-127h-127zM383 895v127h129v129h-129v256h256v-385h-127v-127h-129z" />
<glyph unicode="&#x201e;" d="M0 -2h127v129h-127v256h256v-385h-129v-127h-127v127zM383 -2h129v129h-129v256h256v-385h-127v-127h-129v127z" />
<glyph unicode="&#x2026;" d="M0 127v127h127v-127h-127zM256 127v127h127v-127h-127zM512 127v127h127v-127h-127z" />
<glyph unicode="&#x202f;" horiz-adv-x="332" />
<glyph unicode="&#x205f;" horiz-adv-x="415" />
<glyph unicode="&#x25fc;" horiz-adv-x="890" d="M0 0v891h891v-891h-891z" />
</font>
</defs>
</svg>
